<svg width="800" height="600" viewBox="0 0 800 600" xmlns="http://www.w3.org/2000/svg">
<rect x="0" y="0" width="800" height="600" opacity="1" fill="#FFFFFF" stroke="none"/>
<line opacity="0.1" stroke="#000000" stroke-width="1" x1="80" y1="519" x2="80" y2="50"/>
<line opacity="0.1" stroke="#000000" stroke-width="1" x1="191" y1="519" x2="191" y2="50"/>
<line opacity="0.1" stroke="#000000" stroke-width="1" x1="303" y1="519" x2="303" y2="50"/>
<line opacity="0.1" stroke="#000000" stroke-width="1" x1="414" y1="519" x2="414" y2="50"/>
<line opacity="0.1" stroke="#000000" stroke-width="1" x1="526" y1="519" x2="526" y2="50"/>
<line opacity="0.1" stroke="#000000" stroke-width="1" x1="637" y1="519" x2="637" y2="50"/>
<line opacity="0.1" stroke="#000000" stroke-width="1" x1="749" y1="519" x2="749" y2="50"/>
<line opacity="0.1" stroke="#000000" stroke-width="1" x1="80" y1="519" x2="749" y2="519"/>
<line opacity="0.1" stroke="#000000" stroke-width="1" x1="80" y1="512" x2="749" y2="512"/>
<line opacity="0.1" stroke="#000000" stroke-width="1" x1="80" y1="504" x2="749" y2="504"/>
<line opacity="0.1" stroke="#000000" stroke-width="1" x1="80" y1="496" x2="749" y2="496"/>
<line opacity="0.1" stroke="#000000" stroke-width="1" x1="80" y1="488" x2="749" y2="488"/>
<line opacity="0.1" stroke="#000000" stroke-width="1" x1="80" y1="480" x2="749" y2="480"/>
<line opacity="0.1" stroke="#000000" stroke-width="1" x1="80" y1="473" x2="749" y2="473"/>
<line opacity="0.1" stroke="#000000" stroke-width="1" x1="80" y1="465" x2="749" y2="465"/>
<line opacity="0.1" stroke="#000000" stroke-width="1" x1="80" y1="457" x2="749" y2="457"/>
<line opacity="0.1" stroke="#000000" stroke-width="1" x1="80" y1="449" x2="749" y2="449"/>
<line opacity="0.1" stroke="#000000" stroke-width="1" x1="80" y1="441" x2="749" y2="441"/>
<line opacity="0.1" stroke="#000000" stroke-width="1" x1="80" y1="434" x2="749" y2="434"/>
<line opacity="0.1" stroke="#000000" stroke-width="1" x1="80" y1="426" x2="749" y2="426"/>
<line opacity="0.1" stroke="#000000" stroke-width="1" x1="80" y1="418" x2="749" y2="418"/>
<line opacity="0.1" stroke="#000000" stroke-width="1" x1="80" y1="410" x2="749" y2="410"/>
<line opacity="0.1" stroke="#000000" stroke-width="1" x1="80" y1="402" x2="749" y2="402"/>
<line opacity="0.1" stroke="#000000" stroke-width="1" x1="80" y1="394" x2="749" y2="394"/>
<line opacity="0.1" stroke="#000000" stroke-width="1" x1="80" y1="387" x2="749" y2="387"/>
<line opacity="0.1" stroke="#000000" stroke-width="1" x1="80" y1="379" x2="749" y2="379"/>
<line opacity="0.1" stroke="#000000" stroke-width="1" x1="80" y1="371" x2="749" y2="371"/>
<line opacity="0.1" stroke="#000000" stroke-width="1" x1="80" y1="363" x2="749" y2="363"/>
<line opacity="0.1" stroke="#000000" stroke-width="1" x1="80" y1="355" x2="749" y2="355"/>
<line opacity="0.1" stroke="#000000" stroke-width="1" x1="80" y1="348" x2="749" y2="348"/>
<line opacity="0.1" stroke="#000000" stroke-width="1" x1="80" y1="340" x2="749" y2="340"/>
<line opacity="0.1" stroke="#000000" stroke-width="1" x1="80" y1="332" x2="749" y2="332"/>
<line opacity="0.1" stroke="#000000" stroke-width="1" x1="80" y1="324" x2="749" y2="324"/>
<line opacity="0.1" stroke="#000000" stroke-width="1" x1="80" y1="316" x2="749" y2="316"/>
<line opacity="0.1" stroke="#000000" stroke-width="1" x1="80" y1="308" x2="749" y2="308"/>
<line opacity="0.1" stroke="#000000" stroke-width="1" x1="80" y1="301" x2="749" y2="301"/>
<line opacity="0.1" stroke="#000000" stroke-width="1" x1="80" y1="293" x2="749" y2="293"/>
<line opacity="0.1" stroke="#000000" stroke-width="1" x1="80" y1="285" x2="749" y2="285"/>
<line opacity="0.1" stroke="#000000" stroke-width="1" x1="80" y1="277" x2="749" y2="277"/>
<line opacity="0.1" stroke="#000000" stroke-width="1" x1="80" y1="269" x2="749" y2="269"/>
<line opacity="0.1" stroke="#000000" stroke-width="1" x1="80" y1="262" x2="749" y2="262"/>
<line opacity="0.1" stroke="#000000" stroke-width="1" x1="80" y1="254" x2="749" y2="254"/>
<line opacity="0.1" stroke="#000000" stroke-width="1" x1="80" y1="246" x2="749" y2="246"/>
<line opacity="0.1" stroke="#000000" stroke-width="1" x1="80" y1="238" x2="749" y2="238"/>
<line opacity="0.1" stroke="#000000" stroke-width="1" x1="80" y1="230" x2="749" y2="230"/>
<line opacity="0.1" stroke="#000000" stroke-width="1" x1="80" y1="222" x2="749" y2="222"/>
<line opacity="0.1" stroke="#000000" stroke-width="1" x1="80" y1="215" x2="749" y2="215"/>
<line opacity="0.1" stroke="#000000" stroke-width="1" x1="80" y1="207" x2="749" y2="207"/>
<line opacity="0.1" stroke="#000000" stroke-width="1" x1="80" y1="199" x2="749" y2="199"/>
<line opacity="0.1" stroke="#000000" stroke-width="1" x1="80" y1="191" x2="749" y2="191"/>
<line opacity="0.1" stroke="#000000" stroke-width="1" x1="80" y1="183" x2="749" y2="183"/>
<line opacity="0.1" stroke="#000000" stroke-width="1" x1="80" y1="176" x2="749" y2="176"/>
<line opacity="0.1" stroke="#000000" stroke-width="1" x1="80" y1="168" x2="749" y2="168"/>
<line opacity="0.1" stroke="#000000" stroke-width="1" x1="80" y1="160" x2="749" y2="160"/>
<line opacity="0.1" stroke="#000000" stroke-width="1" x1="80" y1="152" x2="749" y2="152"/>
<line opacity="0.1" stroke="#000000" stroke-width="1" x1="80" y1="144" x2="749" y2="144"/>
<line opacity="0.1" stroke="#000000" stroke-width="1" x1="80" y1="136" x2="749" y2="136"/>
<line opacity="0.1" stroke="#000000" stroke-width="1" x1="80" y1="129" x2="749" y2="129"/>
<line opacity="0.1" stroke="#000000" stroke-width="1" x1="80" y1="121" x2="749" y2="121"/>
<line opacity="0.1" stroke="#000000" stroke-width="1" x1="80" y1="113" x2="749" y2="113"/>
<line opacity="0.1" stroke="#000000" stroke-width="1" x1="80" y1="105" x2="749" y2="105"/>
<line opacity="0.1" stroke="#000000" stroke-width="1" x1="80" y1="97" x2="749" y2="97"/>
<line opacity="0.1" stroke="#000000" stroke-width="1" x1="80" y1="90" x2="749" y2="90"/>
<line opacity="0.1" stroke="#000000" stroke-width="1" x1="80" y1="82" x2="749" y2="82"/>
<line opacity="0.1" stroke="#000000" stroke-width="1" x1="80" y1="74" x2="749" y2="74"/>
<line opacity="0.1" stroke="#000000" stroke-width="1" x1="80" y1="66" x2="749" y2="66"/>
<line opacity="0.1" stroke="#000000" stroke-width="1" x1="80" y1="58" x2="749" y2="58"/>
<line opacity="0.1" stroke="#000000" stroke-width="1" x1="80" y1="50" x2="749" y2="50"/>
<text x="50" y="285" dy="0.76em" text-anchor="middle" font-family="sans-serif" font-size="9.67741935483871" opacity="1" fill="#000000" transform="rotate(270, 50, 285)">
Value
</text>
<text x="415" y="550" dy="-0.5ex" text-anchor="middle" font-family="sans-serif" font-size="9.67741935483871" opacity="1" fill="#000000">
Index
</text>
<line opacity="0.2" stroke="#000000" stroke-width="1" x1="80" y1="519" x2="80" y2="50"/>
<line opacity="0.2" stroke="#000000" stroke-width="1" x1="191" y1="519" x2="191" y2="50"/>
<line opacity="0.2" stroke="#000000" stroke-width="1" x1="303" y1="519" x2="303" y2="50"/>
<line opacity="0.2" stroke="#000000" stroke-width="1" x1="414" y1="519" x2="414" y2="50"/>
<line opacity="0.2" stroke="#000000" stroke-width="1" x1="526" y1="519" x2="526" y2="50"/>
<line opacity="0.2" stroke="#000000" stroke-width="1" x1="637" y1="519" x2="637" y2="50"/>
<line opacity="0.2" stroke="#000000" stroke-width="1" x1="749" y1="519" x2="749" y2="50"/>
<line opacity="0.2" stroke="#000000" stroke-width="1" x1="80" y1="480" x2="749" y2="480"/>
<line opacity="0.2" stroke="#000000" stroke-width="1" x1="80" y1="402" x2="749" y2="402"/>
<line opacity="0.2" stroke="#000000" stroke-width="1" x1="80" y1="324" x2="749" y2="324"/>
<line opacity="0.2" stroke="#000000" stroke-width="1" x1="80" y1="246" x2="749" y2="246"/>
<line opacity="0.2" stroke="#000000" stroke-width="1" x1="80" y1="168" x2="749" y2="168"/>
<line opacity="0.2" stroke="#000000" stroke-width="1" x1="80" y1="90" x2="749" y2="90"/>
<polyline fill="none" opacity="1" stroke="#000000" stroke-width="1" points="79,50 79,519 "/>
<text x="70" y="480" dy="0.5ex" text-anchor="end" font-family="sans-serif" font-size="9.67741935483871" opacity="1" fill="#000000">
1.0
</text>
<polyline fill="none" opacity="1" stroke="#000000" stroke-width="1" points="74,480 79,480 "/>
<text x="70" y="402" dy="0.5ex" text-anchor="end" font-family="sans-serif" font-size="9.67741935483871" opacity="1" fill="#000000">
2.0
</text>
<polyline fill="none" opacity="1" stroke="#000000" stroke-width="1" points="74,402 79,402 "/>
<text x="70" y="324" dy="0.5ex" text-anchor="end" font-family="sans-serif" font-size="9.67741935483871" opacity="1" fill="#000000">
3.0
</text>
<polyline fill="none" opacity="1" stroke="#000000" stroke-width="1" points="74,324 79,324 "/>
<text x="70" y="246" dy="0.5ex" text-anchor="end" font-family="sans-serif" font-size="9.67741935483871" opacity="1" fill="#000000">
4.0
</text>
<polyline fill="none" opacity="1" stroke="#000000" stroke-width="1" points="74,246 79,246 "/>
<text x="70" y="168" dy="0.5ex" text-anchor="end" font-family="sans-serif" font-size="9.67741935483871" opacity="1" fill="#000000">
5.0
</text>
<polyline fill="none" opacity="1" stroke="#000000" stroke-width="1" points="74,168 79,168 "/>
<text x="70" y="90" dy="0.5ex" text-anchor="end" font-family="sans-serif" font-size="9.67741935483871" opacity="1" fill="#000000">
6.0
</text>
<polyline fill="none" opacity="1" stroke="#000000" stroke-width="1" points="74,90 79,90 "/>
<polyline fill="none" opacity="1" stroke="#000000" stroke-width="1" points="80,520 749,520 "/>
<text x="80" y="530" dy="0.76em" text-anchor="middle" font-family="sans-serif" font-size="9.67741935483871" opacity="1" fill="#000000">
0
</text>
<polyline fill="none" opacity="1" stroke="#000000" stroke-width="1" points="80,520 80,525 "/>
<text x="191" y="530" dy="0.76em" text-anchor="middle" font-family="sans-serif" font-size="9.67741935483871" opacity="1" fill="#000000">
1
</text>
<polyline fill="none" opacity="1" stroke="#000000" stroke-width="1" points="191,520 191,525 "/>
<text x="303" y="530" dy="0.76em" text-anchor="middle" font-family="sans-serif" font-size="9.67741935483871" opacity="1" fill="#000000">
2
</text>
<polyline fill="none" opacity="1" stroke="#000000" stroke-width="1" points="303,520 303,525 "/>
<text x="414" y="530" dy="0.76em" text-anchor="middle" font-family="sans-serif" font-size="9.67741935483871" opacity="1" fill="#000000">
3
</text>
<polyline fill="none" opacity="1" stroke="#000000" stroke-width="1" points="414,520 414,525 "/>
<text x="526" y="530" dy="0.76em" text-anchor="middle" font-family="sans-serif" font-size="9.67741935483871" opacity="1" fill="#000000">
4
</text>
<polyline fill="none" opacity="1" stroke="#000000" stroke-width="1" points="526,520 526,525 "/>
<text x="637" y="530" dy="0.76em" text-anchor="middle" font-family="sans-serif" font-size="9.67741935483871" opacity="1" fill="#000000">
5
</text>
<polyline fill="none" opacity="1" stroke="#000000" stroke-width="1" points="637,520 637,525 "/>
<text x="749" y="530" dy="0.76em" text-anchor="middle" font-family="sans-serif" font-size="9.67741935483871" opacity="1" fill="#000000">
6
</text>
<polyline fill="none" opacity="1" stroke="#000000" stroke-width="1" points="749,520 749,525 "/>
<polyline fill="none" opacity="1" stroke="#00FF00" stroke-width="1" points="80,480 191,246 303,402 414,168 526,324 637,90 "/>
</svg>
